<svg width="1661" height="605" viewBox="0 0 1661 605" fill="none" xmlns="http://www.w3.org/2000/svg">
<path d="M1403.51 277.384L1403.2 284.257C1403.15 286.549 1402.56 288.831 1402.27 291.118C1401.76 295.697 1400.26 300.242 1399.07 304.797C1395.95 313.87 1392.21 322.923 1386.62 331.826L1384.65 335.175L1382.41 338.498L1377.85 345.138L1372.72 351.717L1370.14 355.005L1367.28 358.26L1361.55 364.768L1355.3 371.207C1353.27 373.362 1351.06 375.49 1348.76 377.607L1341.97 383.968C1323.09 400.81 1301.07 417.16 1276.04 432.902C1250.83 448.611 1222.03 463.774 1186.94 477.069C1169.43 483.754 1150.35 489.872 1129.93 495.351C1109.29 500.765 1087.32 505.475 1064.31 509.422C1041.23 513.253 1017.31 516.382 992.814 518.775C968.278 521.027 943.315 522.611 918.133 523.512C867.747 525.155 816.967 523.995 767.539 520.072C718.304 516.026 670.835 509.526 626.474 500.757C620.461 499.695 614.891 498.347 609.121 497.128L591.958 493.376L575.406 489.276C569.909 487.899 564.285 486.586 559.09 485.058C548.563 482.073 537.709 479.232 527.813 475.965L512.656 471.204L498.23 466.151C479.097 459.373 461.163 452.159 444.534 444.555C440.408 442.646 436.539 440.664 432.531 438.722L426.57 435.794C424.555 434.826 422.594 433.843 420.81 432.815L409.785 426.73C407.963 425.712 406.08 424.709 404.309 423.679L399.264 420.53C371.936 403.811 350.714 385.864 336.135 367.144C321.895 348.456 313.655 329.229 311.581 309.849C310.366 296.951 311.637 284.039 315.385 271.206C319.508 258.393 325.995 245.695 334.801 233.199C353.048 208.289 379.96 184.143 418.163 162.246C437.264 151.262 459.526 141.051 484.57 131.785C509.889 122.58 538.044 114.472 568.474 107.622C598.865 100.841 630.991 95.1509 664.4 90.6315L670.627 89.7642L676.937 88.9843L689.557 87.4254C697.995 86.4184 706.553 85.5528 715.049 84.6141C723.648 83.8208 732.201 82.9505 740.843 82.2236L753.828 81.1722L760.323 80.6472L766.857 80.2014C836.621 75.2203 908.075 74.1811 978.707 77.1203C1049.14 80.3075 1118.86 87.8183 1180.88 100.981C1243.21 114.241 1294.73 133.302 1330.16 156.209C1347.79 167.505 1362.35 179.401 1373.63 191.726C1384.87 203.963 1393.9 216.455 1400.66 229.121C1407.55 241.739 1412.62 254.445 1416.61 267.167C1420.58 279.889 1423.48 292.687 1424.58 305.543C1426.76 331.21 1421.85 357.317 1402.51 382.421C1383.5 407.697 1348.49 430.997 1300.29 450.454C1252.72 469.929 1195.39 485.918 1131.36 497.563C1004.05 520.878 854.164 527.619 715.349 515.252L702.375 514.062L689.515 512.71C680.903 511.854 672.506 510.742 664.014 509.742C647.221 507.541 630.546 505.187 614.411 502.402C582.008 496.942 551.101 490.373 522.107 482.784C493.127 475.216 466.036 466.731 441.15 457.428C416.34 448.11 393.74 438.043 373.592 427.336C323.663 400.877 290.386 370.73 276.138 339.047C262.836 307.267 269.748 274.8 296.343 244.148C322.526 213.495 366.486 185.25 425.245 161.323C454.591 149.373 487.56 138.672 523.522 129.426C559.684 120.311 598.437 112.64 639.11 106.549C720.339 94.5338 806.369 87.3836 893.866 85.375C938.146 84.4276 982.567 85.8846 1025.67 89.6984C1068.72 93.7157 1109.77 100.183 1147.29 108.861C1184.62 117.496 1218.59 127.924 1248.28 139.863C1277.93 151.749 1303.51 164.906 1324.45 179.041C1345.49 193.15 1361.61 208.163 1372.43 223.729C1383.38 239.213 1389.97 255.063 1392.1 271.034C1396.53 302.931 1384.53 334.841 1361.57 365.427C1350 380.719 1335.81 395.73 1319.07 410.374C1302.53 425.071 1283.15 439.321 1261.06 453.017C1238.89 466.796 1213.01 479.739 1183.83 491.658C1154.41 503.626 1120.84 514.144 1083.95 522.945C1046.93 531.813 1006.32 538.509 963.604 542.79C920.708 546.888 876.224 548.328 832.017 547.048C788.285 545.752 745.111 542.619 703.356 537.71C682.54 535.321 662.049 532.617 641.884 529.597C621.749 526.552 601.998 523.188 582.631 519.506C543.829 512.147 507.337 503.275 473.797 493.046C457.114 487.877 441.329 482.335 426.533 476.453C422.927 474.952 419.081 473.527 415.675 471.962L405.36 467.3L400.207 464.969L397.631 463.803L395.268 462.579L385.837 457.681C336.104 431.357 306.75 400.454 296 369.019C285.214 337.459 292.329 305.429 316.904 274.912C318.408 272.585 320.724 270.346 322.719 268.071L328.857 261.263C333.345 256.776 338.203 252.332 342.974 247.88L351.01 241.334L355.029 238.06C356.333 236.963 357.717 235.879 359.259 234.823L368.202 228.432L372.674 225.238C374.169 224.173 375.907 223.157 377.511 222.115C403.144 205.419 433.703 189.792 468.645 175.512C503.425 161.271 542.545 148.519 585.249 137.502C627.771 126.651 673.576 117.616 721.763 110.575C763.664 104.445 807.09 99.8003 851.438 96.7055C887.829 94.1611 924.727 92.6972 961.769 92.3283C1014.3 91.6947 1066.85 93.3655 1118.29 97.3045C1121.81 97.5707 1125.13 97.7643 1128.18 98.0489L1136.66 98.8424L1149.75 100.097C1153.51 100.412 1157.2 100.815 1160.81 101.306C1161.6 101.552 1149.42 100.655 1125.33 98.7804C1089.4 96.3855 1053.05 94.9218 1016.55 94.4002C989.795 94.0878 963.018 94.3244 936.34 95.1089C929.004 95.3423 921.487 95.5295 913.837 95.8262C906.212 96.2018 898.425 96.5856 890.476 96.9773C886.509 97.1897 882.47 97.3318 878.451 97.6066L866.267 98.4326L853.847 99.2733C849.67 99.5574 845.436 99.8163 841.243 100.214C752.434 107.17 668.372 120.559 594.053 139.585C518.885 159.048 455.172 183.795 406.667 212.365C351.237 244.61 317.167 281.11 307.152 318.979C297.892 356.596 314.017 395.289 358.577 429.349C361.117 431.516 364.272 433.573 367.314 435.648L376.48 441.867L386.662 447.869L391.749 450.869C393.512 451.853 395.46 452.791 397.307 453.755L408.524 459.5C412.311 461.401 416.607 463.16 420.62 464.997C428.665 468.669 437.221 472.189 446.255 475.543C482.553 488.977 523.929 500.457 569.132 509.634C614.356 518.85 662.208 526.24 711.838 531.671C736.561 534.387 761.728 536.536 787.19 538.103C812.556 539.622 838.221 540.384 863.928 540.382C889.509 540.314 915.004 539.299 940.021 537.352C964.979 535.323 989.298 532.365 1012.6 528.526C1059.33 520.747 1102.11 510.136 1139.1 497.145C1157.69 490.672 1175 483.732 1190.92 476.374C1206.81 468.982 1221.52 461.258 1234.95 453.244C1261.76 437.111 1284.64 420.154 1303.32 402.567C1322.42 385.033 1337.83 366.995 1349.42 348.609C1360.77 330.251 1367.38 311.547 1369.16 292.74L1369.54 289.222L1369.49 285.704L1369.36 278.669C1369.4 276.323 1368.77 273.987 1368.5 271.646C1368.11 269.307 1367.91 266.963 1367.36 264.63C1365.2 255.301 1361.49 246.029 1356.26 236.864C1354.91 234.579 1353.66 232.284 1352.22 230.007L1347.21 223.241C1345.53 220.986 1343.96 218.718 1341.91 216.514L1338.99 213.187L1335.79 209.893C1327.2 201.11 1316.79 192.577 1304.65 184.368C1291.27 175.252 1275.85 166.554 1258.54 158.362C1241.21 150.108 1221.95 142.417 1200.97 135.373C1180 128.318 1157.28 121.989 1133.1 116.466C1108.96 110.981 1083.33 106.428 1056.6 102.881C1043.31 101.118 1029.76 99.625 1016.01 98.4102C1009.11 97.8714 1002.27 97.2389 995.302 96.8434C991.829 96.6274 988.378 96.3784 984.893 96.1876L974.418 95.6597C946.371 94.4573 918.083 94.1824 889.9 94.8384C861.761 95.4818 833.755 96.748 806.037 98.6301C778.365 100.473 751.109 102.727 724.52 105.477C682.039 109.804 640.822 115.633 601.455 122.881C562.229 130.149 525.579 139.13 492.311 149.624C459.054 160.173 429.252 172.086 403.498 185.125C390.597 191.645 378.671 198.414 367.77 205.402C356.971 212.416 347.207 219.635 338.521 227.028C329.788 234.418 322.267 241.99 316 249.705C309.686 257.413 304.548 265.243 300.61 273.158C296.804 281.08 294.263 289.075 292.999 297.104C291.654 305.129 291.78 313.178 293.377 321.197C296.458 337.261 305.011 353.123 318.839 368.418C332.567 383.747 351.064 398.453 373.97 412.25C419.754 439.975 482.166 463.568 556.532 481.262C593.536 490.067 633.435 497.142 675.289 502.319C696.173 504.93 717.498 507.046 739.13 508.655C760.763 510.286 782.631 511.467 804.631 512.194C893.065 514.934 982.061 510.444 1065.12 499.053C1106.49 493.403 1145.92 486.017 1182.6 477.044C1200.88 472.556 1218.37 467.657 1234.98 462.376C1251.65 457.127 1267.39 451.495 1282.1 445.516C1303.98 436.665 1323.27 427.006 1339.64 416.698C1355.76 406.34 1368.69 395.367 1378.21 383.978C1397.42 361.142 1403.86 336.961 1403.17 312.878C1402.82 300.818 1400.74 288.743 1397.52 276.69C1394.26 264.633 1390.09 252.597 1384.52 240.68C1373.35 216.882 1356.5 193.342 1328.23 171.698C1314.27 160.893 1297.02 150.694 1276.8 141.293C1256.5 131.968 1232.98 123.637 1206.81 116.507L1196.89 113.89C1193.64 112.988 1190.26 112.146 1186.78 111.369C1179.82 109.808 1172.92 108.206 1165.91 106.672L1144.22 102.473C1136.91 101.129 1129.32 99.9848 1121.89 98.7285C1091.64 94.0422 1060.23 90.4114 1028.09 87.885C995.865 85.3416 963.097 83.8111 930.15 83.3104C897.173 82.7597 864.128 83.0857 831.28 84.2858C765.525 86.6374 701.164 92.6772 640.475 102.191C586.651 110.667 537.715 122.775 496.246 137.876C455.33 153.088 423.075 171.287 397.959 190.645C391.707 195.493 385.667 200.394 380.485 205.415L372.553 212.924C370.057 215.446 367.862 218.008 365.5 220.548L362.012 224.366C360.867 225.641 359.975 226.943 358.943 228.231L352.943 235.976C351.154 238.577 349.569 241.198 347.869 243.808L345.36 247.727C344.599 249.039 343.996 250.363 343.305 251.68L339.279 259.594L336.233 267.564L334.721 271.55L333.709 275.557L331.709 283.571L330.742 291.61L330.275 295.63L330.317 299.652L330.432 307.697L331.571 315.73C331.788 317.068 331.887 318.41 332.2 319.745L333.308 323.745C334.085 326.411 334.697 329.085 335.605 331.744L338.906 339.693C339.506 341.015 339.892 342.351 340.667 343.661L342.869 347.6C348.546 358.116 356.271 368.472 365.986 378.589C371.227 383.591 376.018 388.663 382.284 393.507L386.732 397.18C388.197 398.407 389.661 399.634 391.408 400.812L401.436 407.964C404.6 410.382 408.633 412.63 412.244 414.96L417.799 418.429L420.575 420.164L423.598 421.843L435.749 428.546L438.787 430.222L442.076 431.834L448.65 435.06C483.707 452.305 525.667 467.537 573.131 480.248C578.993 481.862 585.228 483.285 591.256 484.814C597.332 486.32 603.342 487.863 609.748 489.177L628.667 493.293C635.058 494.608 641.671 495.777 648.161 497.028L657.937 498.875C661.206 499.485 664.627 499.976 667.962 500.533L688.097 503.784C694.926 504.758 701.847 505.65 708.718 506.589L719.041 507.982C722.529 508.392 726.064 508.753 729.572 509.141L750.66 511.436L772.058 513.286C779.225 513.846 786.467 514.277 793.668 514.78C797.26 515.051 800.904 515.206 804.537 515.385L815.439 515.918C844.568 517.201 873.958 517.51 903.242 516.842C961.664 515.483 1019.73 510.17 1071.48 500.233C1084.42 497.767 1096.94 495.024 1108.98 492.017C1121.11 489.045 1132.7 485.796 1143.7 482.288C1154.79 478.811 1165.23 475.061 1175.37 471.202C1185.31 467.273 1195.07 463.268 1204.09 459.033C1240.57 442.202 1270.08 423.35 1295.91 403.941C1321.92 384.561 1342.87 364.331 1358.47 343.521C1373.96 322.74 1382.33 301.34 1383.37 279.81C1383.86 269.075 1382.07 258.343 1378.03 247.709C1373.85 237.088 1367.48 226.597 1358.98 216.325C1350.34 206.073 1339.35 196.104 1326.12 186.523L1321.1 182.945L1318.59 181.156L1315.82 179.42L1304.7 172.486L1292.57 165.782C1290.63 164.645 1288.36 163.593 1286.17 162.518L1279.59 159.301L1274.33 156.739L1268.67 154.296L1257.39 149.414L1245.32 144.806L1239.3 142.504L1232.91 140.343L1220.13 136.039C1215.71 134.675 1211.14 133.376 1206.67 132.042C1202.18 130.71 1197.72 129.373 1192.97 128.176L1185.96 126.327L1178.77 124.578C1140.48 115.376 1098.36 108.486 1054.04 104.175C1010.41 99.923 965.396 97.84 920.23 97.9825C853.908 98.1545 788.224 102.713 726.375 111.435C716.255 112.865 706.271 114.393 696.524 116.099L681.84 118.584C679.373 118.981 676.974 119.426 674.614 119.898L667.488 121.277C629.819 128.493 594.155 137.021 560.998 146.74C528.606 156.227 498.372 166.652 470.59 177.913C443.468 188.861 418.514 200.496 395.915 212.731C390.684 215.477 386.215 218.14 381.819 220.555C379.645 221.769 377.556 222.936 375.551 224.057L370.071 227.342C363.062 231.529 357.215 234.933 353.023 237.649C344.452 243.041 340.322 245.238 340.984 244.257C345.655 239.949 351.047 235.748 357.129 231.68C362.579 228.05 368.853 223.529 377.44 218.433C385.674 213.259 395.875 207.442 408.042 200.983C412.459 198.726 416.883 196.466 421.314 194.202C425.653 191.913 430.555 189.77 435.16 187.541C444.313 183.063 454.401 178.835 464.244 174.511C469.245 172.374 474.581 170.338 479.751 168.243L487.58 165.122C490.252 164.101 493.022 163.113 495.741 162.106C501.219 160.105 506.702 158.101 512.191 156.094C517.907 154.172 523.63 152.247 529.359 150.32C552.565 142.63 577.233 135.546 603.179 129.122L612.918 126.678C616.178 125.871 619.604 125.153 622.942 124.385L643.144 119.862C657.079 117.129 670.746 114.185 685.246 111.804C742.884 101.574 804.979 95.0842 868.74 92.6267C932.911 90.0062 997.858 91.7291 1060.31 97.7087C1112.2 102.709 1161.13 111.128 1204.69 122.551C1226.48 128.352 1246.72 134.889 1265.15 142.075L1272.12 144.748L1278.66 147.564C1282.95 149.459 1287.5 151.284 1291.58 153.241L1303.68 159.15L1306.69 160.634L1309.48 162.172L1315.05 165.248L1320.62 168.327C1322.52 169.344 1324.07 170.437 1325.81 171.489L1335.97 177.864C1342.02 182.252 1348.56 186.558 1353.76 191.09L1357.88 194.454L1359.93 196.136L1361.75 197.853L1369.01 204.722C1371.36 207.02 1373.29 209.372 1375.44 211.696L1378.59 215.19L1381.28 218.734C1388.63 228.16 1394.13 237.764 1397.73 247.475L1400.18 254.759C1400.83 257.192 1401.22 259.635 1401.75 262.071C1401.98 263.289 1402.28 264.508 1402.46 265.727L1402.74 269.382C1402.88 271.819 1403.25 274.256 1403.18 276.691C1403.28 276.908 1403.38 277.114 1403.51 277.384Z" fill="#b037d3"/>
</svg>
